<svg width="42" height="42" viewBox="0 0 42 42" fill="none" xmlns="http://www.w3.org/2000/svg">
  <rect x="5" y="5" width="7" height="7" rx="1.5" fill="#E8F0FE" stroke="#96B1F4" stroke-width=".5"/>
  <rect x="13.5" y="5" width="7" height="7" rx="1.5" fill="#C2D4FF" stroke="#96B1F4" stroke-width=".5"/>
  <rect x="22" y="5" width="7" height="7" rx="1.5" fill="#C2D4FF" stroke="#96B1F4" stroke-width=".5"/>
  <rect x="30.5" y="5" width="7" height="7" rx="1.5" fill="#7EA5F8"/>
  <rect x="5" y="13.5" width="7" height="7" rx="1.5" fill="#C2D4FF" stroke="#96B1F4" stroke-width=".5"/>
  <rect x="13.5" y="13.5" width="7" height="7" rx="1.5" fill="#C2D4FF" stroke="#96B1F4" stroke-width=".5"/>
  <rect x="22" y="13.5" width="7" height="7" rx="1.5" fill="#7EA5F8"/>
  <rect x="30.5" y="13.5" width="7" height="7" rx="1.5" fill="#5083FB"/>
  <rect x="5" y="22" width="7" height="7" rx="1.5" fill="#C2D4FF" stroke="#96B1F4" stroke-width=".5"/>
  <rect x="13.5" y="22" width="7" height="7" rx="1.5" fill="#7EA5F8"/>
  <rect x="22" y="22" width="7" height="7" rx="1.5" fill="#5083FB"/>
  <rect x="30.5" y="22" width="7" height="7" rx="1.5" fill="#5083FB"/>
  <rect x="5" y="30.5" width="7" height="7" rx="1.5" fill="#7EA5F8"/>
  <rect x="13.5" y="30.5" width="7" height="7" rx="1.5" fill="#5083FB"/>
  <rect x="22" y="30.5" width="7" height="7" rx="1.5" fill="#5083FB"/>
  <rect x="30.5" y="30.5" width="7" height="7" rx="1.5" fill="#3D6FE8"/>
</svg>
